<?xml version="1.0" encoding="UTF-8" standalone="no"?>
<svg
   xmlns:dc="http://purl.org/dc/elements/1.1/"
   xmlns:cc="http://creativecommons.org/ns#"
   xmlns:rdf="http://www.w3.org/1999/02/22-rdf-syntax-ns#"
   xmlns:svg="http://www.w3.org/2000/svg"
   xmlns="http://www.w3.org/2000/svg"
   xmlns:sodipodi="http://sodipodi.sourceforge.net/DTD/sodipodi-0.dtd"
   xmlns:inkscape="http://www.inkscape.org/namespaces/inkscape"
   sodipodi:docname="icon-cap.svg"
   inkscape:version="1.1-dev (ddb55ca, 2020-02-02)"
   id="svg8"
   version="1.1"
   viewBox="0 0 210 297"
   height="297mm"
   width="210mm">
  <defs
     id="defs2" />
  <sodipodi:namedview
     inkscape:window-maximized="0"
     inkscape:window-y="34"
     inkscape:window-x="0"
     inkscape:window-height="869"
     inkscape:window-width="1680"
     showgrid="false"
     inkscape:current-layer="layer1"
     inkscape:document-units="mm"
     inkscape:cy="420"
     inkscape:cx="254.05172"
     inkscape:zoom="1.0076756"
     inkscape:pageshadow="2"
     inkscape:pageopacity="0.0"
     borderopacity="1.0"
     bordercolor="#666666"
     pagecolor="#ffffff"
     id="base" />
  <metadata
     id="metadata5">
    <rdf:RDF>
      <cc:Work
         rdf:about="">
        <dc:format>image/svg+xml</dc:format>
        <dc:type
           rdf:resource="http://purl.org/dc/dcmitype/StillImage" />
        <dc:title></dc:title>
      </cc:Work>
    </rdf:RDF>
  </metadata>
  <g
     id="layer1"
     inkscape:groupmode="layer"
     inkscape:label="Layer 1">
    <path
       inkscape:connector-curvature="0"
       id="path208"
       d="m -164.90827,134.19251 c -0.22014,0.19803 -0.61056,0.30006 -0.88192,0.42274 -0.62141,0.28089 -1.24655,0.55944 -1.85575,0.86594 -1.88595,0.94888 -3.73627,1.94348 -5.53878,3.04441 -5.19957,3.17555 -9.96429,7.19047 -13.97277,11.77885 -3.23196,3.69963 -6.01807,7.80767 -8.32353,12.1433 -1.51252,2.84419 -2.94428,5.68837 -3.97409,8.75133 -2.92972,8.71367 -3.55948,18.54568 -1.03818,27.44117 1.10341,3.89298 2.61095,7.56786 4.54085,11.12571 0.61351,1.13089 1.26548,2.27535 1.96189,3.35671 0.53217,0.82629 1.15636,1.67259 1.54617,2.57927 0.76248,1.77333 0.68284,3.93911 0.70536,5.83421 0.007,0.58885 0.0341,1.176 0.0341,1.76384 0,0.23031 -0.0564,0.61564 0.0678,0.81407 v 0.0339 c -0.14751,0.13399 -0.0278,0.81001 -0.006,1.0176 0.0346,0.32393 -0.01,0.83511 0.15546,1.11766 0.23767,0.40636 0.85196,0.33682 1.24089,0.26254 1.4574,-0.27848 2.89845,-0.7727 4.34174,-1.12682 2.34332,-0.5746 4.70981,-1.02235 7.08925,-1.42158 1.31609,-0.22048 2.67526,-0.49014 4.00255,-0.49388 v -0.0339 h -0.0678 v -0.0339 l 0.10176,0.0678 c 0.45147,-0.14178 0.98706,-0.0678 1.45855,-0.0678 v -0.0339 h -0.1696 v -0.0339 l 1.49247,-0.0678 v 0.0339 l -0.20351,0.0678 v 0.0339 h 0.61055 v -0.0678 l -0.37312,-0.0678 v -0.0339 l 0.88192,0.10176 v 0.0339 h -0.47488 v 0.0339 l 2.57791,0.0678 -0.1696,-0.10175 v -0.0339 c 0.20047,-0.0227 0.54781,-0.0567 0.71232,0.0678 h -0.5088 v 0.0678 c 1.28489,0.0553 2.55756,0.24016 3.83295,0.37889 0.47623,0.0516 1.12987,0.33513 1.59423,0.19775 l 0.27136,0.0339 -0.0678,0.0678 v 0.0339 l 1.11935,0.0678 -0.0678,0.13568 0.44096,0.0678 c 0,-0.14518 0.29239,-0.13636 0.40704,-0.1696 l -0.1696,0.13568 c 0.11669,0.11024 0.38771,0.10142 0.54272,0.0678 v 0.10176 l -0.10176,-0.0339 v 0.0339 h 0.61056 l -0.13568,0.10176 v 0.0339 l 0.78015,0.10176 -0.0339,0.10176 c 0.13704,0 0.88904,-0.0278 0.848,0.13568 l 0.61056,0.0339 v 0.10176 c 0.15908,0.005 0.23778,0.0465 0.3392,0.1696 h 0.0339 l 0.0339,-0.13568 h 0.30528 l -0.0678,0.13568 0.30528,0.0339 0.0339,0.0339 -0.0339,0.10176 0.13568,-0.0678 v 0.13568 l 0.20351,-0.0339 v 0.0339 l -0.10176,-0.0339 c 0.0316,0.14653 0.18453,0.11939 0.23744,0 l 0.10176,0.0339 v -0.0339 h -0.0678 v -0.0339 h 0.1696 c 0.0363,0.18961 0.76286,0.35921 0.94976,0.33919 0.0851,0.20115 0.32292,0.15739 0.47488,0.0339 l 0.0339,0.13568 -0.10176,0.0339 v 0.0339 l 0.10176,0.0339 c 0.13568,-0.20928 0.41043,-0.022 0.5088,0.13568 l 0.0678,-0.0678 0.25168,0.0495 0.93551,0.0862 c -0.0892,0.26763 0.27543,0.11974 0.23744,0.27136 h 0.13568 v -0.10176 l 0.0339,0.10176 c 0.12245,-0.0336 0.19979,-0.0458 0.27136,0.0678 l 0.13568,-0.0339 c 0.0187,0.12381 0.3548,0.13636 0.47488,0.16757 0.46707,0.12211 1.08102,0.29578 1.56031,0.20555 0.039,0.18249 0.20895,0.0478 0.3392,0.08 0.18011,0.0448 0.77914,0.28323 0.91583,0.15739 h 0.0339 l 0.54272,0.17536 1.32288,0.24592 2.71359,0.43893 0.57663,-0.0309 2.23872,0.0865 v 0.0339 h -0.10176 v 0.0339 h 0.1696 l -0.0339,-0.0678 h 0.16959 v 0.0339 l -0.0678,0.0339 c 0.70757,0.0159 1.48671,-0.10583 2.2048,-0.16248 0.251,-0.0197 0.70621,-0.13195 0.91583,0.0268 h 0.0339 c 0.0889,-0.14789 0.49184,-0.13568 0.6784,-0.13568 0.5322,0 0.97079,-0.0899 1.42463,-0.20352 0.11126,-0.0278 0.18317,0.0458 0.27136,0.0678 0.11262,0.0282 0.14891,-0.0553 0.23744,-0.0678 0.0614,-0.009 0.003,0.0556 0,0.0678 l 2.98495,-0.3504 0.94976,-0.12448 0.47487,-0.0339 v 0.0339 l -0.30527,0.0339 v 0.0339 c 0.37854,-0.003 1.08814,-0.0295 1.39071,-0.27136 h 0.0339 c 0.06,0.0689 0.10956,0.0689 0.1696,0 h 0.30528 l 0.10176,-0.10176 c 0.0217,0.1289 0.47861,-0.0119 0.54271,-0.10176 0.11499,0.0275 0.59326,0.001 0.61056,-0.10176 0.20488,0.0336 0.33784,-0.0241 0.5088,-0.13568 l -0.0339,0.10176 2.2048,-0.47488 v -0.0339 l -0.10176,-0.10176 -0.1696,0.0339 0.0339,0.10176 -0.10176,0.0678 -0.44097,-0.10176 v -0.0339 l 0.67841,-0.10176 0.23744,-0.0339 h 0.0339 l 0.47488,-0.1696 -0.30528,0.20352 c 0.34259,0.0984 0.81272,-0.11397 1.15327,-0.18927 1.00064,-0.22048 1.95447,-0.60004 2.95103,-0.82832 v -0.0339 l -0.13568,-0.0339 0.0339,-0.10176 1.05152,-0.30528 -0.40704,0.27136 -0.13568,-0.0678 -0.40704,0.13568 0.13568,0.0339 c 0.2215,0.061 0.84291,-0.0519 0.98368,-0.23744 l 0.0678,0.0339 h 0.0339 v -0.0339 l -0.0678,-0.0339 0.20352,-0.0339 v 0.0339 h -0.10176 v 0.0339 c 0.48675,-0.0102 1.09866,-0.21709 1.56031,-0.37312 l 0.1696,-0.1696 -0.0678,0.1696 2.37439,-0.5088 -0.0339,-0.10176 0.23744,-0.0339 -0.0678,0.0678 v 0.0339 l 4.4435,-0.62209 3.29023,-0.19164 2.61183,-0.0343 v -0.0339 h -1.28896 l -0.23744,-0.13568 v -0.0339 c 0.88396,0.002 1.76316,0.0627 2.64575,0.12143 0.36634,0.0244 0.75777,-0.008 1.11936,0.0492 0.64685,0.1021 1.51181,0.41315 2.17087,0.27035 l 0.44096,0.0339 v 0.0339 l -0.10176,0.0339 0.5088,0.10175 v -0.10175 l 0.20352,0.0339 -0.0678,0.0678 v 0.0339 l 0.814066,0.11906 0.27136,-0.0512 0.23744,0.10176 0.0339,-0.10176 0.44096,0.0678 -0.0678,0.13568 c 1.58541,0.0682 3.2424,0.4932 4.7827,0.8558 0.43926,0.10346 0.8904,0.1886 1.32287,0.31681 0.2561,0.076 0.54408,0.20284 0.81408,0.15027 0.10176,0.14619 0.30969,0.15874 0.47488,0.13568 0.0984,0.16892 0.3375,0.19334 0.5088,0.26695 0.43824,0.18825 0.79644,0.41009 1.28895,0.41144 l -0.0678,-0.20351 c 0.15264,-0.0434 0.40772,-0.0448 0.52508,-0.15095 0.18079,-0.16349 0.13839,-0.37956 0.15909,-0.59529 0.0492,-0.51864 0.0159,-1.03965 0.0285,-1.56032 0.0539,-2.20784 -0.10651,-4.44587 0.0675,-6.64829 l -0.0678,0.0678 h -0.0339 v -0.1696 l 0.10176,0.0339 c -0.0214,-0.21742 0.0756,-0.40229 0.13059,-0.61056 0.14179,-0.5383 0.30935,-1.04269 0.58274,-1.52639 0.14349,-0.25338 0.51626,-0.65228 0.47386,-0.94975 0.38669,-0.18419 0.67162,-0.92025 0.86496,-1.28896 0.50168,-0.95654 1.11359,-1.87407 1.64647,-2.81535 0.19402,-0.34327 0.67568,-0.92058 0.64312,-1.32287 0.29307,-0.18487 0.48506,-0.80763 0.62379,-1.11936 0.39415,-0.88565 0.81441,-1.75908 1.20755,-2.64575 1.39885,-3.15285 2.32758,-6.5757 2.89743,-9.97244 0.14382,-0.85681 0.26118,-1.71566 0.36464,-2.57791 0.0448,-0.37447 0.1506,-0.81645 0.0624,-1.18719 0.13602,-0.0227 0.094,-0.54611 0.10617,-0.6784 0.0685,-0.73368 0.12991,-1.46669 0.13127,-2.20479 0.006,-3.10604 -0.0214,-6.22904 -0.61734,-9.29404 -0.47284,-2.43273 -0.95383,-4.83358 -1.73975,-7.19101 -0.94942,-2.84791 -2.1858,-5.52962 -3.52428,-8.20861 -3.15658,-6.31825 -7.37349,-12.2159 -12.53712,-17.05965 -9.921896,-9.30714 -22.751066,-15.4219 -36.328176,-16.76299 -2.26143,-0.2234 -4.54356,-0.49513 -6.81789,-0.49513 -1.83269,0 -3.67522,0.32234 -5.49502,0.50422 -4.15145,0.41487 -8.41416,1.28407 -12.38075,2.585 -1.39716,0.45815 -2.80721,0.9084 -4.17214,1.46136 -0.41654,0.16879 -0.84528,0.3181 -1.25504,0.50409 -0.2259,0.1026 -0.53084,0.29032 -0.78015,0.29554 m 16.07801,7.12317 v 0.0678 h -0.0678 v -0.0678 h 0.0678 m -11.19355,0.38442 0.0112,0.0113 c -0.0166,0.006 -0.0373,-0.0113 -0.0112,-0.0113 m 29.44244,1.71861 -0.0339,0.0339 0.0339,-0.0339 m -31.51155,0.65578 c 0.0261,0 0.005,0.0169 -0.0112,0.0113 l 0.0112,-0.0113 m 57.73161,9.36178 c 0.0261,0 0.005,0.017 -0.0112,0.0115 l 0.0112,-0.0115 m -0.23744,3.01886 c 0.0261,0 0.005,0.017 -0.0112,0.0115 l 0.0112,-0.0115 m -30.56202,6.12892 v 0.0678 h -0.0678 v -0.0678 h 0.0678 m 33.37715,1.02879 c 0.0261,0 0.005,0.017 -0.0112,0.0115 l 0.0112,-0.0115 m -87.14013,4.87327 v 0.0339 h -0.10176 l 0.10176,-0.0339 m 97.576256,5.2803 -0.0115,0.0224 0.0115,-0.0224 m 8.99995,4.6243 v 0.0678 h -0.0678 v -0.0678 h 0.0678 m -22.149666,5.6307 -0.0339,0.0339 0.0339,-0.0339 m -90.19292,1.59423 v 0.0678 l -0.1696,-0.0339 0.1696,-0.0339 m 60.4452,0.37312 v 0.0339 l -0.13568,-0.0678 0.13568,0.0339 m 1.15327,0.71232 v 0.0678 h -0.0678 l 0.0678,-0.0678 m 32.66484,0.58783 c 0.0261,0 0.005,0.017 -0.0112,0.0115 l 0.0112,-0.0115 m -63.59975,1.5152 -0.0339,0.0339 0.0339,-0.0339 m 84.663976,0.10176 -0.0339,0.0339 0.0339,-0.0339 m -18.48633,0.13568 v 0.0339 l -0.16959,0.0678 c 0.0339,-0.10312 0.0631,-0.11838 0.16959,-0.10176 m -25.270286,1.18719 -0.0339,0.0339 0.0339,-0.0339 m 43.620936,0.47488 -0.0339,0.0339 0.0339,-0.0339 m 0,0.20352 v 0.0678 h -0.0678 v -0.0678 h 0.0678 m -0.079,0.19232 -0.0115,0.0224 0.0115,-0.0224 m -116.503536,0.0451 v 0.0678 l -0.20352,-0.0339 0.20352,-0.0339 m 54.91626,1.45855 c 0.26966,1.30693 0.68857,2.4575 1.39716,3.59483 0.4474,0.71808 1.08475,1.31304 1.47144,2.06979 0.29205,0.57087 0.3392,1.13394 0.32868,1.76383 -0.0109,0.6421 -0.0872,1.18923 -0.4067,1.76383 -0.28425,0.51152 -0.64346,0.97045 -1.12851,1.30558 -0.56443,0.39008 -1.20992,0.63023 -1.89951,0.66042 -2.3883,0.10447 -4.0497,-2.53822 -3.34043,-4.71351 0.41687,-1.27877 1.45686,-2.15289 2.16714,-3.2563 0.47827,-0.74285 0.8541,-1.51995 1.08136,-2.37439 0.0705,-0.26424 -0.0183,-0.78762 0.32937,-0.81408 m 25.57558,0.38431 c 0.0261,0 0.005,0.017 -0.0112,0.0115 l 0.0112,-0.0115 m -10.583,2.44223 c 0.0261,0 0.005,0.017 -0.0112,0.0115 l 0.0112,-0.0115 m 1.08543,1.65088 -0.10175,0.0678 v -0.0339 l 0.10175,-0.0339 m -34.05554,0.74624 -0.0339,0.0339 0.0339,-0.0339 m 45.85966,1.69599 -0.0678,0.0678 0.0678,-0.0678 m 2.78143,2.23871 v 0.0339 h -0.10176 l 0.10176,-0.0339 m -40.66992,0.0678 v 0.0678 h -0.13568 v -0.0678 h 0.13568 m 17.57049,0.1696 v 0.0678 h -0.16963 l 0.1696,-0.0678 m 51.659946,0 -0.0339,0.0339 0.0339,-0.0339 m -32.596986,0.27136 v 0.0339 l -0.1696,0.0339 0.1696,-0.0678 m -0.13568,0.61056 v 0.0678 h -0.0678 l 0.0678,-0.0678 m -11.37435,0.36192 -0.0115,0.0224 0.0115,-0.0224 m 8.15197,0.0451 -0.0339,0.0339 0.0339,-0.0339 m -11.80412,0.0339 v 0.0678 h -0.0678 l 0.0678,-0.0678 m 13.66971,0.10176 -0.0339,0.0339 0.0339,-0.0339 m 7.49629,0.1696 -0.0339,0.0339 0.0339,-0.0339 m -11.19356,0.40703 -0.0339,0.0339 0.0339,-0.0339 m -11.05788,0.0339 -0.13568,0.0678 0.13568,-0.0678 m -20.11448,0.45216 c 0.0261,0 0.005,0.017 -0.0112,0.0115 l 0.0112,-0.0115 m 30.01909,-0.0112 v 0.0678 h -0.0678 l 0.0678,-0.0678 m -0.81408,0.0678 -0.0339,0.0339 0.0339,-0.0339 m -10.71868,0.0339 v 0.0339 l -0.23744,0.0339 v -0.0678 h 0.23744 m -39.1096,0.13568 -0.13568,0.0678 0.13568,-0.0678 m 41.92495,0.0824 c 0.31715,-0.0845 0.78457,0.0231 1.11935,0.0193 0.90295,-0.0109 1.80895,0 2.7136,0 0.49387,0 1.18312,-0.13805 1.65698,0.0146 0.10414,0.0336 0.10482,0.12923 0.10685,0.22285 0.004,0.20386 0.1038,0.77168 -0.0543,0.92059 -0.19877,0.18689 -0.90566,0.0631 -1.16684,0.0631 -0.79034,3.4e-4 -1.62307,-0.001 -2.40832,0.0919 -0.28798,0.0343 -0.65465,0.02 -0.89616,0.20827 -0.49862,0.38906 -0.34836,1.47822 -0.3236,2.04028 0.01,0.21946 0.0682,0.4803 0.24049,0.63125 0.1557,0.13601 0.37719,0.14551 0.57223,0.17367 0.48167,0.0695 0.97249,0.0431 1.45856,0.0431 0.14891,0 0.54645,0.0695 0.65228,-0.0543 0.0719,-0.0845 0.057,-0.34564 0.0597,-0.45452 0.009,-0.36939 -0.0858,-0.82765 0.0112,-1.1855 0.0475,-0.17537 0.24863,-0.17062 0.39619,-0.1713 0.39584,-0.002 0.93992,-0.0967 1.3205,0.0109 0.19504,0.0549 0.10074,0.53898 0.10447,0.70146 0.0153,0.61904 -3.4e-4,1.24282 -3.4e-4,1.86559 0,0.15739 0.0702,0.53186 -0.0787,0.63362 -0.11397,0.0784 -0.29952,0.0417 -0.43011,0.0461 -0.3609,0.0112 -0.72385,-10e-4 -1.08543,-10e-4 -1.11936,0 -2.24584,0.0119 -3.35807,-0.0648 -0.58817,-0.0404 -1.15497,-0.0346 -1.50164,-0.61497 -0.19266,-0.32224 -0.16044,-0.75641 -0.16044,-1.118 0,-0.71367 0.0339,-1.42497 0.0339,-2.13695 0,-0.31308 -0.0763,-0.83612 0.0689,-1.11901 0.12144,-0.2371 0.69434,-0.69773 0.94874,-0.76591 m -5.08798,1.30829 c -0.0661,0.27746 -0.0176,0.56578 -0.037,0.84799 -0.0546,0.79915 -0.0787,1.60746 -0.0984,2.40831 -0.006,0.26458 0.12754,0.96774 -0.0546,1.1699 -0.0919,0.10176 -0.26322,0.0848 -0.38668,0.0851 h -0.98365 c -0.10821,0 -0.32767,0.041 -0.38669,-0.0787 -0.12856,-0.26152 -0.0204,-0.81713 -0.0204,-1.1085 0,-0.78015 0.018,-1.56031 0.0336,-2.34047 0.006,-0.3124 -0.0753,-0.72622 0.0343,-1.01759 -0.33208,0.007 -0.98164,0.0604 -1.20212,0.3436 -0.2293,0.29477 -0.14077,0.83545 -0.15603,1.18279 -0.0438,0.99894 0.0397,2.02468 -0.0665,3.01887 l -1.72991,0.0678 v -3.49375 c 0,-0.54068 -0.0485,-1.26351 0.27169,-1.72957 0.33411,-0.48573 1.07119,-0.49828 1.5939,-0.54883 1.46194,-0.14144 2.94051,-0.0739 4.40958,-0.0912 0.51999,-0.006 1.4321,-0.0316 1.77604,0.43689 0.25915,0.35276 0.22523,0.90362 0.22523,1.32219 v 2.67967 c 0,0.28289 0.13399,1.04677 -0.0658,1.26386 -0.0848,0.0923 -0.26322,0.0543 -0.37515,0.0648 -0.3063,0.0292 -0.89379,0.11262 -1.17634,-0.0261 -0.11974,-0.059 -0.10956,-0.34056 -0.10956,-0.45453 0.001,-0.46504 -0.003,-0.92601 -0.003,-1.39071 0,-0.57223 0.0526,-1.24011 -0.0767,-1.79776 -0.0532,-0.22997 -0.0912,-0.46368 -0.30223,-0.61089 -0.32326,-0.22455 -0.76048,-0.0987 -1.11359,-0.20318 m 13.19483,0.81407 c 0.64142,0 1.33271,-0.0546 1.96735,0.006 0.25745,0.0244 0.7805,0.13093 1.01251,-0.007 0.15773,-0.0933 0.08,-0.32428 0.0919,-0.47387 0.0292,-0.3626 0.0265,-0.7191 0.008,-1.08543 -0.006,-0.12042 -0.0329,-0.35752 0.0611,-0.44978 0.17842,-0.17435 0.86563,-0.0868 1.099,-0.0648 0.16757,0.016 0.45487,-0.056 0.59971,0.0407 0.1411,0.094 0.0787,0.42942 0.0787,0.57562 0,0.56748 -0.0339,1.12987 -0.0339,1.69599 v 2.54399 c 0,0.19877 0.095,0.74454 -0.0543,0.89074 -0.11126,0.10888 -0.38058,0.059 -0.52237,0.059 -0.46877,0 -0.93245,0.0261 -1.39071,-0.0678 v -0.0678 h 0.13568 c 0,-0.67636 -0.12279,-1.47857 0.0339,-2.13695 -0.69977,-0.1523 -1.4918,0.0621 -2.20479,-0.006 -0.19131,-0.0183 -0.67637,-0.12482 -0.82765,0.0261 -0.0974,0.0977 -0.0543,0.32936 -0.0543,0.45452 v 1.22112 c 0,0.13771 0.0532,0.44401 -0.0828,0.53254 -0.21607,0.13975 -0.71809,0.0441 -0.96876,0.0441 -0.20589,0 -0.44197,0.0315 -0.64379,-0.0115 -0.30935,-0.0665 -0.17028,-1.01827 -0.17028,-1.27742 0,-1.08815 0.0488,-2.16985 0.0617,-3.2563 0.003,-0.28188 0.009,-0.5668 0.005,-0.848 -0.001,-0.0997 -0.0472,-0.23778 0.008,-0.32834 0.0594,-0.0974 0.23167,-0.0913 0.33174,-0.10278 0.34327,-0.0407 0.70587,-0.01 1.05151,-0.01 0.12008,0 0.32699,-0.0339 0.40602,0.0824 0.099,0.14619 0.0153,0.46368 0.009,0.62989 -0.0156,0.46267 0.041,0.92805 -0.008,1.39071 m 9.9046,1.89951 h -2.10303 c -0.06,0.44503 -0.21675,0.88497 -0.31715,1.32288 -0.0322,0.14077 -0.0316,0.38329 -0.16723,0.46877 -0.19809,0.12483 -0.6438,0.04 -0.87242,0.04 -0.17231,0 -0.74657,0.0906 -0.84392,-0.0787 -0.0627,-0.10922 0.0142,-0.3185 0.0441,-0.4301 0.0885,-0.32767 0.16757,-0.65703 0.26017,-0.98368 0.24795,-0.87445 0.53932,-1.73805 0.78592,-2.61183 0.15875,-0.56408 0.44028,-1.24859 1.00878,-1.50875 0.30731,-0.14077 0.6516,-0.15332 0.98368,-0.15332 0.42399,0 0.96739,-0.0739 1.35679,0.13297 0.35684,0.18961 0.55018,0.57189 0.72046,0.91855 0.39584,0.80525 0.64176,1.71193 0.86461,2.57791 0.13127,0.50913 0.27306,1.01624 0.39822,1.52639 0.0336,0.13636 0.16214,0.4396 0.0641,0.56205 -0.1411,0.17571 -0.56273,0.0414 -0.75845,0.0499 -0.24286,0.0105 -0.68721,0.13331 -0.90566,-0.007 -0.12855,-0.0828 -0.14958,-0.33207 -0.18418,-0.46877 -0.11058,-0.44028 -0.31512,-0.90159 -0.33479,-1.3568 m -45.48654,-2.30655 c 0.36498,0.0539 0.71774,0.26594 1.05457,0.41111 0.61157,0.26288 1.23977,0.50371 1.86254,0.74013 0.54746,0.20759 1.34322,0.37719 1.79131,0.76422 0.67704,0.58444 0.32223,1.81471 -0.4006,2.17596 -0.40127,0.2008 -1.05219,0.0807 -1.49247,0.0807 -1.07933,0 -2.17698,-0.0119 -3.25631,0.0353 -0.38499,0.017 -0.76625,0.0326 -1.15327,0.0326 -0.13026,0 -0.34124,0.0397 -0.4603,-0.0204 -0.0984,-0.0499 -0.0818,-0.19301 -0.0824,-0.28493 -0.001,-0.21946 -0.10515,-0.81951 0.0349,-0.9925 0.16553,-0.20453 0.87717,-0.0756 1.11834,-0.0987 1.19771,-0.11397 2.45003,0.12007 3.62943,-0.16384 -0.30019,-0.23133 -0.73165,-0.32054 -1.08544,-0.44842 -0.66211,-0.23879 -1.31846,-0.47996 -1.96735,-0.75302 -0.46131,-0.19436 -1.03659,-0.38736 -1.37952,-0.76896 -0.50066,-0.55697 -0.34564,-1.67802 0.36192,-1.98228 0.62888,-0.27034 1.33305,-0.25948 2.00128,-0.28866 0.88225,-0.0387 1.76247,-0.0326 2.64574,-0.0326 0.41993,0 0.83545,-0.005 1.25504,0 0.1255,0.001 0.39211,-0.0502 0.48539,0.0543 0.10685,0.12008 0.0539,0.5356 0.0522,0.69197 -0.002,0.13975 0.009,0.38126 -0.0638,0.50371 -0.14009,0.23642 -0.84155,0.0879 -1.08441,0.11668 -0.88701,0.10448 -1.8544,0.0577 -2.74751,0.058 -0.30291,0 -0.89549,-0.0594 -1.11936,0.16959 m 7.49629,-1.59423 c 0.0421,0.99216 0,1.98872 0,2.98495 0,0.38397 -0.006,0.9735 0.30833,1.24554 0.2795,0.24218 0.80831,0.14517 1.15022,0.14517 -0.096,-0.4033 -0.0193,-0.84698 -0.001,-1.25503 0.0265,-0.60649 0.0322,-1.22587 0.0353,-1.83167 0.001,-0.27272 0.018,-0.54272 0.0251,-0.81408 0.003,-0.12754 -0.0587,-0.27543 0,-0.39754 0.059,-0.12279 0.23337,-0.11567 0.34802,-0.10549 0.32326,0.0292 0.65974,0.0546 0.98368,0.0139 0.12855,-0.0163 0.32325,-0.0359 0.40602,0.0923 0.12245,0.18961 0.0349,0.65058 0.0349,0.87174 0,0.81272 -0.0678,1.62849 -0.0678,2.44223 0,0.21098 -0.10515,0.97418 0.13771,1.04066 0.31783,0.0875 0.95892,0.0689 1.15531,-0.22726 0.20759,-0.31241 0.19945,-0.82527 0.19945,-1.18652 3.4e-4,-0.70112 -0.004,-1.40598 0.0621,-2.10303 0.021,-0.22014 -0.0933,-0.57223 -0.007,-0.77066 0.058,-0.13331 0.26831,-0.11363 0.38601,-0.1099 0.35243,0.0105 0.69977,0.005 1.05152,0.0295 0.11227,0.008 0.32495,-0.038 0.40602,0.0621 0.0953,0.1177 0.0349,0.44096 0.0349,0.58546 0,0.54373 -0.0339,1.08679 -0.0339,1.62815 0,0.70994 0.0214,1.43583 -0.0933,2.13695 -0.056,0.34158 -0.13093,0.69468 -0.38296,0.9484 -0.43485,0.43757 -1.22518,0.37448 -1.79639,0.37448 -1.28998,0 -2.57757,-0.0522 -3.86687,-0.0678 -0.57867,-0.007 -1.43786,0.0261 -1.89815,-0.37041 -0.37244,-0.32088 -0.33174,-0.67907 -0.38432,-1.12207 -0.11363,-0.96468 -0.0288,-1.94971 -0.0241,-2.9171 0.001,-0.31139 -0.04,-0.64177 -0.0132,-0.94976 0.008,-0.0946 -0.006,-0.24185 0.0675,-0.3141 0.0923,-0.0902 0.33242,-0.0862 0.45453,-0.0916 0.42637,-0.0187 0.90295,-0.0455 1.32288,0.0326 m 42.87437,-0.0234 c 1.07492,-0.1038 2.2187,-3.4e-4 3.29057,0.079 0.46809,0.0346 0.95823,0.0614 1.21806,0.52101 0.2103,0.37244 0.20725,0.80967 0.24626,1.22111 0.0885,0.93076 0.096,1.88052 0.096,2.81535 0,0.26559 0.14653,1.22146 -0.2042,1.253 -0.38092,0.0343 -0.77167,-0.0126 -1.15259,-0.0126 -0.11872,0 -0.3297,0.0597 -0.42366,-0.0414 -0.15671,-0.16926 -0.0512,-0.7727 -0.0512,-0.99555 0,-0.80661 -0.0275,-1.60475 -0.0665,-2.40831 -0.0258,-0.52847 -0.1808,-1.01488 -0.78152,-1.07967 -0.52338,-0.056 -1.7367,-0.19097 -2.0742,0.30019 -0.18757,0.27306 -0.15501,0.63668 -0.17299,0.94908 -0.0407,0.69943 -0.0254,1.40157 -0.0254,2.10303 0,0.22591 0.11261,0.8965 -0.0543,1.06034 -0.16485,0.16112 -0.74454,0.059 -0.96332,0.059 -0.20115,0 -0.52135,0.0607 -0.70723,-0.0203 -0.16078,-0.0702 -0.10685,-0.34802 -0.10685,-0.48845 v -1.42463 c 0,-0.82392 -0.0807,-1.69973 0.0814,-2.51007 0.0726,-0.36363 0.1696,-0.74455 0.47114,-0.9908 0.36227,-0.29612 0.93178,-0.34599 1.38054,-0.3894 m -33.68209,0.0573 c 0,0.83002 0.0573,1.68514 -0.02,2.51143 -0.0692,0.7425 -0.0139,1.52232 -0.0139,2.27127 0,0.24558 0.0845,0.68315 -0.0251,0.90566 -0.0631,0.12754 -0.26356,0.11126 -0.38194,0.11194 -0.35209,0.002 -0.7001,0.0339 -1.05151,0.0339 -0.1133,0 -0.2985,0.0319 -0.37211,-0.0787 -0.0828,-0.1238 -0.0197,-0.32868 -0.007,-0.46402 0.0224,-0.23642 -0.0153,-0.47556 -0.0149,-0.71232 0.002,-1.08611 -0.10142,-2.24617 0.0404,-3.32414 0.0349,-0.26797 0.0149,-0.54577 -0.003,-0.81408 -0.007,-0.1038 -0.0438,-0.27034 0.038,-0.35277 0.10414,-0.10447 0.35447,-0.0499 0.48845,-0.0556 0.45012,-0.0197 0.87174,-0.0682 1.32288,-0.0326 m 42.026706,0.0438 c 0.64888,-0.077 1.45753,-0.0431 2.00127,0.35073 0.88225,0.63973 1.13564,2.18749 1.44159,3.1671 0.18181,0.58138 0.33242,1.17498 0.48777,1.76383 0.0577,0.21844 0.19402,0.5417 -0.13161,0.60275 -0.3297,0.0621 -1.29268,0.13365 -1.54708,-0.10854 -0.40128,-0.38261 -0.25746,-1.21399 -0.53526,-1.67632 -0.0977,-0.16214 -0.36837,-0.10685 -0.52949,-0.10685 -0.41687,0 -1.27912,-0.20589 -1.62035,0.0851 -0.42535,0.36261 -0.12245,1.31915 -0.53865,1.68752 -0.10345,0.0916 -0.29171,0.059 -0.41891,0.059 -0.319856,0 -0.978246,0.11499 -1.244176,-0.097 -0.1333,-0.10583 -0.0488,-0.31275 -0.0108,-0.44571 0.10549,-0.37007 0.20623,-0.7442 0.29069,-1.11936 0.23507,-1.04303 0.41145,-2.34488 1.047446,-3.22238 0.34632,-0.47793 0.70417,-0.86869 1.30761,-0.93992 m -22.861986,0.0241 -0.0339,0.0339 0.0339,-0.0339 m -10.27772,0.1696 v 0.0339 l -0.13568,0.0339 0.13568,-0.0678 m 21.19992,0.37312 -0.0339,0.0339 0.0339,-0.0339 m -41.58576,0.1696 -0.0339,0.0678 h -0.0339 l -0.0339,-0.0678 h 0.10176 m 38.53297,1.66207 1.45855,0.0339 c -0.0655,-0.30528 -0.39177,-1.23977 -0.80831,-1.14276 -0.36226,0.0841 -0.56307,0.80221 -0.65024,1.10884 m 29.612036,-1.05151 -0.0339,0.0339 0.0339,-0.0339 m -13.26267,1.15327 c -0.0377,-0.18011 -0.10345,-0.34327 -0.18283,-0.5088 -0.0946,-0.19843 -0.32359,-0.63498 -0.59733,-0.58037 -0.27068,0.0543 -0.8602,0.75845 -0.61937,1.03795 0.16044,0.18622 0.63566,0.11906 0.85681,0.11906 0.18962,0 0.36871,0.0159 0.54272,-0.0678 m -58.104726,-0.91584 v 0.0339 h -0.13568 l 0.13568,-0.0339 m 38.63473,0.0678 v 0.0678 h -0.0678 l 0.0678,-0.0678 m 32.551876,0.0227 -0.0115,0.0224 0.0115,-0.0224 m -0.12449,0.35039 v 0.0678 h -0.0678 l 0.0678,-0.0678 m -41.585746,0.0451 c 0.0261,0 0.005,0.017 -0.0112,0.0115 l 0.0112,-0.0115 m 41.416146,0.22624 -0.0339,0.0339 0.0339,-0.0339 m -46.741566,0.23744 v 0.0339 l -0.13568,0.0339 0.13568,-0.0678 m -30.42612,0.11295 c 0.0261,0 0.005,0.017 -0.0112,0.0115 l 0.0112,-0.0115 m 76.692806,0.64448 0.0112,0.0115 c -0.0166,0.005 -0.0373,-0.0115 -0.0112,-0.0115 m -0.0339,0.0567 -0.0678,0.0678 v -0.0678 h 0.0678 m -42.264146,0.3392 -0.0339,0.0339 0.0339,-0.0339 m 3.18847,0.96095 0.0112,0.0115 c -0.0166,0.005 -0.0373,-0.0115 -0.0112,-0.0115 m 12.24507,2.66847 -0.0339,0.0339 0.0339,-0.0339 m 11.634506,0.0678 -0.237436,0.13568 0.237436,-0.13568 m 12.68603,0.3392 -0.0339,0.0339 0.0339,-0.0339 m -0.30528,0.57664 -0.0339,0.0339 0.0339,-0.0339 m -0.13568,0.13568 -0.0339,0.0339 0.0339,-0.0339 m -0.91583,1.62815 -0.0339,0.0339 0.0339,-0.0339 m -0.23744,0.6784 -0.0678,0.0678 v -0.0678 h 0.0678 m -0.1696,0.67839 -0.0339,0.0339 0.0339,-0.0339 m -0.079,0.59937 -0.0115,0.0224 0.0115,-0.0224 m -79.836166,1.26623 -0.0339,0.0339 0.0339,-0.0339 m 24.86326,0.30527 -0.13568,0.0678 0.13568,-0.0678 m 25.71126,0.47488 -0.13568,0.10176 0.13568,-0.10176 m 2.30655,0.0339 v 0.0339 l -0.1696,0.0339 0.1696,-0.0678 m -49.14989,0.1696 -0.23743,0.0678 0.23743,-0.0678 m 7.76765,0.78016 -0.1696,0.10176 0.1696,-0.10176 m 39.9576,0 -0.0678,0.0678 0.0678,-0.0678 m -26.69493,0.61056 -0.0339,0.0339 0.0339,-0.0339 m 0.61056,0.1696 v 0.0339 l -0.13568,0.0339 0.13568,-0.0678 m 16.51897,0.27135 v 0.0678 h -0.0678 l 0.0678,-0.0678 m 23.20119,0.0678 -0.0339,0.0339 0.0339,-0.0339 m -24.38838,0.13568 -0.0339,0.0339 0.0339,-0.0339 m 18.82552,0.1696 v 0.0339 l -0.13568,0.0339 0.13568,-0.0678 m -62.00551,0.37312 -0.30528,0.10176 v -0.0678 l 0.30528,-0.0339 m 1.62815,0 -0.20352,0.10176 0.20352,-0.10176 m 20.6572,0 -0.0339,0.0339 0.0339,-0.0339 m -22.42103,0.37312 v 0.0339 h -0.10176 l 0.10176,-0.0339 m 7.97117,0.0451 0.0112,0.0115 c -0.0166,0.005 -0.0373,-0.0115 -0.0112,-0.0115 m 39.92368,0.36193 -0.10176,0.0678 v -0.0339 l 0.10176,-0.0339 m -11.7702,0.0678 -0.0339,0.0339 0.0339,-0.0339 m -8.64956,0.1696 -0.0339,0.0339 0.0339,-0.0339 m 0.54272,0.0339 v 0.0339 h -0.13568 l 0.13568,-0.0339 m 35.95505,0.0339 c -0.11498,0.16247 -0.40025,0.0902 -0.57663,0.0787 -0.41552,-0.0268 -0.90838,-0.01 -1.32288,0.0231 v -0.0678 l 1.89951,-0.0339 m -1.96735,0.10176 h -0.20352 v -0.10176 l 0.20352,0.10176 m 10.616916,-0.10176 -0.13568,0.13568 0.13568,-0.13568 m -11.023956,0.0339 -0.0339,0.0339 0.0339,-0.0339 m -0.67839,0.0678 v 0.0339 l -0.54272,0.1696 0.54272,-0.20352 m -0.5088,0.0339 -0.10176,0.0678 0.10176,-0.0678 m 5.1219,0.0678 h 0.67839 v -0.0678 c -0.17807,0 -0.55594,-0.0722 -0.67839,0.0678 m 2.40831,-0.0566 c 0.0261,0 0.005,0.017 -0.0112,0.0115 l 0.0112,-0.0115 m -0.81408,0.0227 0.0339,0.0339 -0.0339,-0.0339 m 15.263936,0 -0.0339,0.0339 0.0339,-0.0339 m -23.438626,0.0339 -0.10176,0.0678 0.10176,-0.0678 m 9.83676,0.0339 v 0.0339 h -0.13567 l 0.13567,-0.0339 m -10.17595,0.0339 v 0.0339 l -0.27136,0.0339 0.27136,-0.0678 m 1.11935,0 -0.0339,0.0339 0.0339,-0.0339 m 0.30528,0 v 0.0339 h -0.10176 l 0.10176,-0.0339 m -59.46152,0.10176 v 0.0339 h -0.10096 l 0.10176,-0.0339 m 0.57663,0 v 0.0339 l -0.23744,0.0339 0.23744,-0.0678 m 0.30528,0.0339 v 0.0339 h -0.23744 l 0.23744,-0.0339 m 57.73161,-0.0339 -0.0339,0.0339 0.0339,-0.0339 m -57.59593,0.0339 v 0.0339 h -0.10176 l 0.10176,-0.0339 m 0.5088,0 v 0.0339 h -0.20352 l 0.20352,-0.0339 m 0.23744,0 v 0.0339 l -0.13568,0.0339 0.13568,-0.0678 m 5.76638,0 v 0.0678 h -0.23744 l 0.23744,-0.0678 m 50.08844,0.0227 -0.0115,0.0224 0.0115,-0.0224 m 0.92703,-0.0227 v 0.0339 h -0.10176 l 0.10176,-0.0339 m -61.39495,0.0339 -0.0339,0.0339 0.0339,-0.0339 m 0.23744,0 -0.0339,0.0339 0.0339,-0.0339 m 0.54271,0 -0.27135,0.0339 v 0.0339 l 0.27135,-0.0678 m 0.23744,0 -0.13568,0.0339 v 0.0339 l 0.13568,-0.0678 m 0.23744,0.0339 v 0.0339 h 0.20352 l -0.20352,-0.0339 m -0.1696,0 v 0.0339 h 0.10176 l -0.10176,-0.0339 m 4.54526,0.0112 c 0.0261,0 0.005,0.017 -0.0112,0.0115 l 0.0112,-0.0115 m 67.87365,0.1584 -0.23743,-0.0339 v -0.0678 l 0.23743,0.10176 m -66.75429,-0.0678 -0.0339,0.0339 0.0339,-0.0339 m 35.20882,0 -0.0339,0.0339 0.0339,-0.0339 m 17.70617,0 -0.0339,0.0339 0.0339,-0.0339 m -0.57664,0.13568 h -0.20352 c 0.0831,-0.078 0.12042,-0.078 0.20352,0 m 14.755136,-0.10176 v 0.0339 h -0.237436 l 0.237436,-0.0339 m -15.840566,0.0451 0.0112,0.0115 c -0.0166,0.005 -0.0373,-0.0115 -0.0112,-0.0115 m -50.23532,0.0227 v 0.0339 h -0.10176 l 0.10176,-0.0339 m 49.99788,0 -0.13568,0.10176 0.13568,-0.10176 m -0.23744,0.0678 v 0.0678 h -0.0678 v -0.0678 h 0.0678 m -0.1696,0.0339 v 0.0339 l -0.3392,0.10176 c 0.0817,-0.12313 0.19877,-0.13228 0.3392,-0.13568 m 0.78016,0 v 0.0339 l -0.1696,0.0678 0.1696,-0.10176 m -61.9716,0.0339 -0.0339,0.0339 0.0339,-0.0339 m 12.21115,0 v 0.0339 h -0.13568 l 0.13568,-0.0339 m 0.44096,0.0678 h -0.1696 0.1696 m 65.736696,-0.0678 0.0339,0.0339 -0.0339,-0.0339 m 0.13568,0 v 0.0339 l 0.1696,0.0339 v -0.0339 l -0.1696,-0.0339 m 0.47488,0 -0.0678,0.0678 0.0678,-0.0678 m 0.20352,0.0678 v 0.0339 l -0.1696,-0.0339 h 0.1696 m -18.689846,0 v 0.0678 h -0.0678 v -0.0678 h 0.0678 m -0.40704,0.10176 -0.1696,0.13568 0.1696,-0.13568 m -12.21115,0.0678 v 0.0339 l -0.20352,0.0339 0.20352,-0.0678 m -49.523,0 -0.0339,0.0339 0.0339,-0.0339 m 15.50138,0.0451 c 0.0261,0 0.005,0.017 -0.0112,0.0115 l 0.0112,-0.0115 m 45.52046,0.0678 0.0112,0.0115 c -0.0166,0.005 -0.0373,-0.0115 -0.0112,-0.0115 m -25.81302,0.0566 -0.0678,0.0678 0.0678,-0.0678 m -36.97265,0.13568 v 0.0339 h -0.10176 l 0.10176,-0.0339 m 18.38456,0.0339 0.0339,0.0339 -0.0339,-0.0339 m 0.20352,0 v 0.0678 h 0.0678 v -0.0678 h -0.0678 m 43.14607,0.0339 -0.0339,0.0339 0.0339,-0.0339 m -65.12614,0.0678 -0.0339,0.0339 0.0339,-0.0339 m 64.51558,0.0339 -0.0339,0.0339 0.0339,-0.0339 m 0.64448,0.0339 -0.0339,0.0339 0.0339,-0.0339 m -42.16239,0.0678 0.0339,0.0339 -0.0339,-0.0339 m 1.176,0.0906 -0.0115,0.0224 0.0115,-0.0224 m -0.59937,0.0451 0.0339,0.0339 -0.0339,-0.0339 m 0.0906,0.0451 0.0224,0.0115 -0.0224,-0.0115 m 1.13055,0.0566 v 0.0339 l -0.13568,0.0339 0.13568,-0.0678 m 0,0.0678 -0.0339,0.0339 0.0339,-0.0339 m 37.65105,0.20352 v 0.0339 l -0.6784,0.1696 -0.0339,0.10176 c -0.04,-0.17062 0.56647,-0.2873 0.71232,-0.30528 m -36.84816,0.14687 0.0224,0.0115 -0.0224,-0.0115 m 36.67856,0.0227 -0.0339,0.0339 0.0339,-0.0339 m -0.67839,0.10176 v 0.0339 h -0.10176 c -0.0156,0.12923 -0.12347,0.12245 -0.23744,0.10176 l -0.13568,0.0678 c 0.0777,-0.13636 0.20318,-0.19301 0.3392,-0.10176 l 0.13568,-0.10176 m 31.748986,0.0678 0.0339,0.0678 h -0.0678 l 0.0339,-0.0678 m -32.020346,0.0339 0.0339,0.0339 -0.0339,-0.0339 m 33.885936,0 -0.0339,0.0339 0.0339,-0.0339 m -34.564336,0.10176 0.0339,0.0678 h -0.0678 l 0.0339,-0.0678 m -0.10176,0.0678 v 0.0678 l -0.0678,-0.0678 h 0.0678 m -0.10176,0.0339 -0.10176,0.0678 v -0.0339 l 0.10176,-0.0339 m -0.13568,0.0339 -0.0678,0.0678 v -0.0678 h 0.0678 m -0.47488,0.13568 c -0.0862,0.19063 -0.55153,0.26389 -0.67839,0.10175 l 0.67839,-0.10175 m -31.81683,0.0678 v 0.0339 h 0.13568 l -0.13568,-0.0339 m 66.550766,0.0112 c 0.0261,0 0.005,0.017 -0.0112,0.0115 l 0.0112,-0.0115 m -66.324516,0.0339 0.0224,0.0115 -0.0224,-0.0115 m 31.27411,0 0.0224,0.0115 -0.0224,-0.0115 m -0.59936,0.1584 -0.0339,0.0339 0.0339,-0.0339 m -29.64596,0.13568 v 0.0339 l 0.13567,-0.0339 h -0.13567 m 29.00148,0.13568 0.1696,-0.0339 -0.1696,0.0339 m -27.33941,0.0339 v 0.10176 h -0.0339 l -0.0339,-0.10176 h 0.0678 m 26.18613,0.0112 c 0.0261,0 0.005,0.017 -0.0112,0.0115 l 0.0112,-0.0115 m -0.27135,0.0339 c 0.0261,0 0.005,0.017 -0.0112,0.0115 l 0.0112,-0.0115 m 0.84799,0.0227 v 0.0339 h -0.13568 l 0.13568,-0.0339 m -0.98367,0.0339 v 0.0339 h -0.13568 l 0.13568,-0.0339 m 0.71231,0.0112 c 0.0261,0 0.005,0.017 -0.0112,0.0115 l 0.0112,-0.0115 m -26.18613,0.0227 -0.0339,0.0339 0.0339,-0.0339 m 25.30422,0 v 0.0339 h -0.10176 l 0.10176,-0.0339 m -23.72118,0.12449 -0.0115,0.0224 0.0115,-0.0224 m 23.26902,0.10176 -0.0115,0.0224 0.0115,-0.0224 m 0.11296,-0.0115 0.0112,0.0115 c -0.0166,0.005 -0.0373,-0.0115 -0.0112,-0.0115 m -22.11575,0.12448 v 0.0339 l -0.1696,0.0339 v -0.0678 h 0.1696 m 21.81047,0 0.0339,0.0339 -0.0339,-0.0339 m -21.40344,0.0678 0.0339,0.0678 h -0.0678 l 0.0339,-0.0678 m -1.25503,0.0678 -0.0339,0.0339 0.0339,-0.0339 m 1.45855,0 v 0.0339 h -0.10176 l 0.10176,-0.0339 m 0.40704,0.0678 v 0.0339 h -0.10176 l 0.10176,-0.0339 m 19.3004,0.0112 c 0.0261,0 0.005,0.017 -0.0112,0.0115 l 0.0112,-0.0115 m -1.18719,0.0227 c -0.0254,0.15196 -0.038,0.22421 -0.20352,0.23744 0.019,-0.14721 0.0516,-0.21302 0.20352,-0.23744 m 0.64448,0.0112 c 0.0261,0 0.005,0.017 -0.0112,0.0115 l 0.0112,-0.0115 m -1.1872,0.0227 -0.0339,0.0339 0.0339,-0.0339 m -16.99385,0.0339 v 0.0678 h -0.10176 v -0.0678 h 0.10176 m 0.57664,0.1696 -0.10176,-0.0678 0.10176,0.0678 m 16.58681,0 v 0.0339 h -0.13568 l 0.13568,-0.0339 m -16.45113,0.079 c 0.0261,0 0.005,0.017 -0.0112,0.0115 l 0.0112,-0.0115 m 0.74623,0.0227 v 0.0339 h -0.1696 l 0.1696,-0.0339 m 0.0678,0 0.0339,0.0678 h -0.0678 l 0.0339,-0.0678 m 12.71995,0 v 0.0339 l -0.3392,0.1696 0.3392,-0.20352 m 2.10303,0.10176 0.10176,-0.0678 -0.10176,0.0678 m -2.54399,-0.0339 v 0.0339 l -0.10175,0.10176 h -0.0339 l 0.0339,-0.13568 h 0.10175 m -11.77019,0.0339 -0.0339,0.0339 0.0339,-0.0339 m 10.85436,0 v 0.0339 h -0.10176 l 0.10176,-0.0339 m 0.30528,0 -0.0339,0.0339 0.0339,-0.0339 m 1.93343,0.10176 v 0.0339 l 1.08544,-0.10176 c -0.29104,-0.12211 -0.78457,0.006 -1.08544,0.0678 m -2.51007,-0.0339 v 0.0339 h -0.1357 l 0.13568,-0.0339 m -9.90461,0.11295 c 0.0261,0 0.005,0.017 -0.0112,0.0115 l 0.0112,-0.0115 m 0.27136,-0.0112 v 0.0678 l -0.1696,-0.0339 0.1696,-0.0339 m 11.56668,0 v 0.0339 h 0.10176 l -0.10176,-0.0339 m 0.20352,0 v 0.0339 h 0.10176 l -0.10176,-0.0339 m -0.5088,0.0339 0.0339,0.0339 -0.0339,-0.0339 m -10.00636,0.13568 v 0.0339 c -0.23846,0.0566 -0.8982,0.0814 -1.05152,-0.13568 l 1.05152,0.10176 m 6.34301,-0.10176 v 0.0339 l -1.96735,0.13568 0.74624,-0.10719 1.22111,-0.0624 m 0.1696,0.0112 c 0.0261,0 0.005,0.017 -0.0112,0.0115 l 0.0112,-0.0115 m -7.12317,0.0566 0.0339,0.0339 -0.0339,-0.0339 m 9.53148,0 v 0.0339 h 0.20352 l -0.20352,-0.0339 m -8.58172,0.0678 v 0.0339 h -0.20352 l 0.20352,-0.0339 m 0.13568,0 v 0.0339 h -0.10176 l 0.10176,-0.0339 m 3.56158,0 v 0.0678 l -0.37312,0.0339 0.37312,-0.10176 m 3.76511,0 -0.1696,0.0678 v 0.0339 h 0.27136 v -0.0339 l -0.10176,-0.0678 m 0.6784,0 0.0339,0.0339 -0.0339,-0.0339 m -7.36062,0.10176 h -0.10176 l 0.0339,-0.0678 0.0678,0.0678 m 0.64448,-0.0339 v 0.0339 h -0.37312 v -0.0678 l 0.37312,0.0339 m 0.91584,-0.0339 v 0.0678 l -0.27136,0.0339 0.27136,-0.10176 m 0.64448,0.0339 -0.23744,0.0678 v -0.0678 h 0.23744 m 0.1696,-0.0339 -0.0339,0.0339 0.0339,-0.0339 m 4.47742,0 v 0.0339 h 0.23744 l -0.23744,-0.0339 m -0.71232,0.0678 v 0.0339 h 0.10176 l -0.10176,-0.0339 m 0.15841,0.0112 0.0224,0.0115 -0.0224,-0.0115 m -0.5088,0.0339 0.0224,0.0115 -0.0224,-0.0115 m -2.024,0.0906 v 0.0339 l 0.6784,-0.0339 h -0.6784 m -0.079,0.0451 0.0224,0.0115 -0.0224,-0.0115 m -0.73504,0.0227 v 0.0339 h 0.1696 l -0.1696,-0.0339 m -0.848,0.0339 v 0.0339 h 0.13568 z"
       style="fill:#0530fa;stroke:none;stroke-width:0.0339199" />
    <path
       sodipodi:nodetypes="cccccccccccccccccccccccccccccccccccccccccccccccccccccccccccccccccccccccccccccccccccccccccccccccccccccccccccccccccccccccccccc"
       inkscape:connector-curvature="0"
       d="m 78.508843,69.047849 c -1.44049,-0.03844 -2.775373,-0.758253 -4.22661,-0.673034 -0.847037,0.01767 -1.659897,0.282671 -2.487263,0.433713 -0.136087,-0.752879 -0.02235,-1.614505 -0.631698,-2.235431 -1.101124,-1.86977 -1.131464,-4.270723 -0.137924,-6.191731 1.118976,-2.353859 3.34805,-4.122149 5.894929,-4.672428 3.544451,-0.8768 7.501877,0.964486 9.201494,4.17792 1.138026,1.957517 1.2943,4.498473 0.168887,6.496584 -0.488091,0.61365 -0.68498,1.345478 -0.558724,2.121183 -1.355415,-0.176384 -1.169606,-0.192037 -1.718466,-0.130527 -0.761876,-0.122655 -1.525736,-0.03751 -2.257322,0.131109 -0.715415,0.115819 -1.38326,0.405583 -2.11768,0.433298 -0.375758,0.04388 -0.751639,0.08315 -1.129623,0.109344 z m 0.124998,-0.03529 c 0.220416,-0.04812 -0.402257,0.02252 0,0 z m -0.298723,-0.0074 -0.05372,0.0062 z m 0.06956,0.0066 c -0.03906,-0.04689 -0.116652,0.05711 0,0 z m 0.0544,-0.0011 c 0.0058,-0.03221 -0.04442,0.02289 0,0 z m -0.239578,-0.005 c -0.294345,-0.07218 -0.281195,-0.0059 0,0 z m 0.622666,-0.0079 c 0.513492,-0.02447 -0.288179,-0.0054 0,0 z m 0.249354,-0.02569 -0.0571,0.0065 z m 0.220538,-0.01733 h -0.03669 z m 0.06941,-0.0046 -0.06228,-7.94e-4 z m -1.577631,-0.01206 c -0.06369,-0.041 -0.03567,0.0363 0,0 z m -0.142188,-0.02535 -0.02923,5.29e-4 z m -0.07407,-0.01363 h -0.02746 z m -0.157402,-0.01355 c 0.244685,0.03478 -0.135573,-0.0658 0,0 z m -0.05555,-0.0286 -0.03668,0.0019 z m 3.025741,-0.01802 c 0.0057,-0.04131 -0.05458,0.0313 0,0 z m 0.0598,-0.01389 c 0.09452,-0.01908 -0.07129,-0.0024 0,0 z m -0.01469,-0.01696 c 0.240409,-0.03506 -0.122277,-0.0074 0,0 z m 0.487786,-0.0967 c 0.219655,-0.07054 -0.11009,-0.0069 0,0 z m 0.612878,-0.18746 -0.03352,0.0013 z m 0.180184,-0.03738 c 0.05509,-0.02688 -0.09836,0.01741 0,0 z m 0.111824,-0.02537 c -0.03192,-0.03619 -0.08221,0.05162 0,0 z m 0.05865,-0.01662 0.0055,-0.0016 z m 0.05433,-0.006 c 0.08796,-0.01624 -0.05851,-0.01349 0,0 z m -6.730228,-0.02951 -0.02968,7.94e-4 z m 6.997346,0.004 c 0.01169,-0.07471 -0.06748,0.02506 0,0 z m -0.124677,-0.009 -0.03032,0.0049 z m 0.08277,-0.0016 c 0.02053,-0.04969 -0.03723,0.04527 0,0 z m -7.142696,-0.0099 -0.06578,-0.0077 z m 0.06096,0.0021 -0.02969,7.94e-4 z m -0.158213,-0.01172 -0.03826,-0.0024 z m 7.471824,0.0013 0.120115,-0.05951 z m -6.841784,-0.0016 c -0.0097,-0.03825 -0.04883,0.0352 0,0 z m 6.777929,-0.014 -0.01984,0.0058 z m 1.669106,0.0055 c 0.01638,-0.03098 -0.04667,0.01926 0,0 z m -9.529763,-0.197337 c -0.01264,-0.04439 -0.09754,0.05643 0,0 z m 0.222215,0 c -0.0075,-0.03851 -0.07343,0.04518 0,0 z m 11.048051,-0.845786 -0.0114,0.0049 z m 0.632423,-1.143412 c 0.0288,-0.05645 -0.03811,0.02863 0,0 z m 0.07405,-0.157401 c 0.04449,-0.06051 -0.04175,0.01019 0,0 z m -7.007191,2.933967 h 0.0413 z m 1.636565,-0.296362 0.10618,-0.03685 z m 0.187687,-0.05523 0.01598,-0.0054 z m 0.0539,-0.01849 c 0.03106,-0.03924 0.02744,0.03482 0,0 z m 1.543027,-0.248036 c 0.276402,-0.03926 0.385185,0.0204 0,0 z m 0.381931,-0.0067 0.01521,-0.0028 z"
       style="fill:none;stroke:#020000;stroke-width:0.180556;stroke-miterlimit:4;stroke-dasharray:none;stroke-opacity:1"
       id="path206" />
  </g>
</svg>
